<?xml version="1.0" encoding="UTF-8" standalone="no"?>
<svg
   width="1119.8667"
   height="324.62"
   viewBox="-2 0 111.98667 32.462"
   version="1.1"
   id="svg6"
   sodipodi:docname="logo-text-dark.svg"
   inkscape:version="1.3.2 (091e20e, 2023-11-25)"
   xmlns:inkscape="http://www.inkscape.org/namespaces/inkscape"
   xmlns:sodipodi="http://sodipodi.sourceforge.net/DTD/sodipodi-0.dtd"
   xmlns="http://www.w3.org/2000/svg"
   xmlns:svg="http://www.w3.org/2000/svg">
  <defs
     id="defs6" />
  <sodipodi:namedview
     id="namedview6"
     pagecolor="#ffffff"
     bordercolor="#000000"
     borderopacity="0.25"
     inkscape:showpageshadow="2"
     inkscape:pageopacity="0.0"
     inkscape:pagecheckerboard="0"
     inkscape:deskcolor="#d1d1d1"
     inkscape:zoom="0.24"
     inkscape:cx="-425"
     inkscape:cy="754.16667"
     inkscape:window-width="1280"
     inkscape:window-height="642"
     inkscape:window-x="112"
     inkscape:window-y="250"
     inkscape:window-maximized="0"
     inkscape:current-layer="svg6" />
  <g
     id="g145"
     transform="matrix(0,2.7283528,-2.7283528,0,142.81107,-235.58484)"
     style="display:inline">
    <g
       id="text133"
       style="font-weight:300;font-size:26.6667px;line-height:0.8;font-family:Roboto;-inkscape-font-specification:'Roboto Light';white-space:pre;fill:none;stroke:#bcbcbc;stroke-width:0.377953"
       transform="matrix(0,-0.31904145,0.31904145,0,42.724183,121.73607)"
       aria-label="eweOS">
      <path
         style="font-weight:500;-inkscape-font-specification:'Roboto Medium';fill:#ffffff;stroke:none"
         d="m 270.4603,165.75979 q -3.00782,0 -4.88282,-1.88803 -1.86198,-1.90104 -1.86198,-5.05208 v -0.39063 q 0,-2.10938 0.80729,-3.76303 0.82031,-1.66666 2.29167,-2.59115 1.47135,-0.92448 3.28125,-0.92448 2.87761,0 4.44011,1.83594 1.57553,1.83594 1.57553,5.19532 v 1.27605 h -9.20575 q 0.14323,1.74479 1.15886,2.76042 1.02865,1.01562 2.57813,1.01562 2.17448,0 3.54167,-1.75781 l 1.70573,1.6276 q -0.84635,1.26303 -2.26563,1.96615 -1.40625,0.69011 -3.16406,0.69011 z m -0.37761,-12.07033 q -1.30208,0 -2.10938,0.91146 -0.79427,0.91146 -1.01562,2.53907 h 6.02865 v -0.23438 q -0.10417,-1.58854 -0.84635,-2.39584 -0.74219,-0.82031 -2.0573,-0.82031 z m 20.8594,7.44793 2.23959,-9.72658 h 3.08594 l -3.84115,14.08856 h -2.60417 l -3.02084,-9.67449 -2.96875,9.67449 h -2.60417 l -3.85417,-14.08856 h 3.08594 l 2.27865,9.62241 2.89063,-9.62241 h 2.38281 z m 13.64585,4.6224 q -3.00781,0 -4.88281,-1.88803 -1.86199,-1.90104 -1.86199,-5.05208 v -0.39063 q 0,-2.10938 0.8073,-3.76303 0.82031,-1.66666 2.29167,-2.59115 1.47135,-0.92448 3.28125,-0.92448 2.87761,0 4.44011,1.83594 1.57552,1.83594 1.57552,5.19532 v 1.27605 h -9.20574 q 0.14323,1.74479 1.15886,2.76042 1.02864,1.01562 2.57813,1.01562 2.17448,0 3.54167,-1.75781 l 1.70573,1.6276 q -0.84636,1.26303 -2.26563,1.96615 -1.40625,0.69011 -3.16407,0.69011 z m -0.3776,-12.07033 q -1.30209,0 -2.10938,0.91146 -0.79427,0.91146 -1.01562,2.53907 h 6.02865 v -0.23438 q -0.10417,-1.58854 -0.84636,-2.39584 -0.74219,-0.82031 -2.05729,-0.82031 z"
         id="path136" />
      <path
         style="fill:#ffffff;stroke:none"
         d="m 327.4786,157.04884 q 0,2.61719 -0.91146,4.59636 -0.89844,1.97917 -2.57813,3.04688 -1.67969,1.06771 -3.88021,1.06771 -3.32032,0 -5.36459,-2.3698 -2.04428,-2.38281 -2.04428,-6.41928 v -1.95312 q 0,-2.59115 0.91146,-4.58334 0.92448,-2.00521 2.60417,-3.07292 1.67969,-1.08073 3.86719,-1.08073 2.18751,0 3.85418,1.05469 1.67969,1.05468 2.59115,2.98177 0.91145,1.92709 0.95052,4.46615 z m -1.60157,-2.05729 q 0,-3.42449 -1.54948,-5.36459 -1.54948,-1.94011 -4.2448,-1.94011 -2.64323,0 -4.21875,1.95313 -1.5625,1.9401 -1.5625,5.42969 v 1.97917 q 0,3.3724 1.5625,5.35157 1.5625,1.96615 4.2448,1.96615 2.72135,0 4.24479,-1.94011 1.52344,-1.95313 1.52344,-5.42969 z m 16.36721,5.84636 q 0,-1.57553 -1.10677,-2.48699 -1.10677,-0.92448 -4.04949,-1.74479 -2.94271,-0.83333 -4.29688,-1.8099 -1.92708,-1.38021 -1.92708,-3.61979 0,-2.17449 1.78385,-3.52865 1.79688,-1.36719 4.58334,-1.36719 1.88803,0 3.3724,0.72916 1.4974,0.72917 2.31772,2.03126 0.82031,1.30208 0.82031,2.90365 h -1.61459 q 0,-1.94011 -1.32812,-3.11199 -1.32813,-1.18489 -3.56772,-1.18489 -2.17448,0 -3.46354,0.97656 -1.28907,0.96354 -1.28907,2.52604 0,1.44532 1.15886,2.35678 1.15886,0.91146 3.71094,1.61458 2.55209,0.69011 3.86719,1.44532 1.31511,0.74219 1.97917,1.78385 0.66407,1.04167 0.66407,2.46095 0,2.23958 -1.79688,3.59375 -1.78386,1.35417 -4.71355,1.35417 -2.00521,0 -3.6849,-0.71615 -1.66667,-0.71615 -2.53906,-2.00521 -0.85938,-1.28906 -0.85938,-2.95573 h 1.60156 q 0,2.00521 1.4974,3.16406 1.4974,1.15886 3.98438,1.15886 2.21355,0 3.55469,-0.97656 1.34115,-0.97657 1.34115,-2.59115 z"
         id="path137" />
    </g>
    <g
       id="g136"
       transform="matrix(0,-0.36652167,0.36652167,0,85.050153,53.076372)">
      <path
         class="path"
         fill="#ffac33"
         d="m 11.983,3.562 c 4.543,-0.262 7.824,1.597 8.089,6.826 0.215,4.19 -5.184,6.79 -8.046,6.879 -2.462,0.077 -1.353,-1.852 0.61,-2.334 1.576,-0.387 4.124,-2.413 3.602,-4.44 C 15.641,8.173 11.923,7.809 9.887,10.785 9.089,11.952 6.333,11.658 5.791,10.351 4.833,8.042 7.002,3.849 11.983,3.562 Z"
         id="path1-32" />
      <path
         class="path"
         fill="#e1e8ed"
         d="m 35.75,21.384 c 0,-7.783 -4.495,-11.407 -14.519,-11.407 -1.087,0 -2.083,0.051 -3.018,0.137 C 16.853,7.691 13.368,7.286 10,7.286 c -4.304,0 -10,6.145 -10,10.839 0,4.608 3.606,4.866 7.811,4.874 0.233,3.245 1.226,5.647 3.249,7.26 0.277,1.15 1.534,5.741 3.94,5.741 1.353,0 2.099,-1.695 2.51,-3.417 1.128,0.136 2.359,0.209 3.722,0.209 1.733,0 3.288,-0.116 4.695,-0.335 C 26.017,34.114 26.458,36 28,36 c 2.317,0 4.273,-4.956 4.834,-6.521 1.969,-1.87 2.916,-4.545 2.916,-8.095 z"
         id="path2-65" />
      <circle
         class="path"
         fill="#292f33"
         cx="4.5"
         cy="15.786"
         r="1.5"
         id="circle2-26" />
      <path
         class="path"
         fill="#ffcc4d"
         d="m 17.562,4.339 c 4.312,1.455 5.74,4.148 4.034,9.099 -1.367,3.967 -7.345,4.361 -10.034,3.375 C 9.25,15.964 11,14.589 13,14.875 c 1.606,0.23 4.727,-0.698 5,-2.773 C 18.312,9.727 15,8 12,10 10.823,10.785 6.226,10.43 6.5,9.042 7.138,5.816 12.835,2.744 17.562,4.339 Z"
         id="path3-58" />
      <path
         fill="#dd2e44"
         class="nopath"
         transform="matrix(0.3,0,0,0.3,9,3.9)"
         d="m 19.281,6.392 c 0,0.405 -2.37,0.405 -2.37,0 C 16.911,5.492 2,-3.507 2,3.692 v 13.499 c 0,2.487 3.476,1.947 7.193,0.361 -1.429,3.525 -4.498,9.68 -7.05,13.934 -0.229,0.382 -0.178,0.868 0.124,1.194 0.303,0.325 0.783,0.415 1.181,0.215 l 5.258,-2.629 c 0.441,0.726 0.931,1.868 1.376,2.906 0.333,0.778 0.678,1.582 1.024,2.275 0.144,0.287 0.417,0.488 0.734,0.54 C 11.893,35.996 11.947,36 12,36 c 0.263,0 0.518,-0.104 0.707,-0.293 1.42,-1.419 3.429,-8.395 4.793,-14.093 1.364,5.698 3.373,12.674 4.793,14.093 C 22.481,35.896 22.737,36 23,36 c 0.053,0 0.106,-0.004 0.16,-0.013 0.317,-0.052 0.591,-0.253 0.734,-0.54 0.347,-0.693 0.691,-1.497 1.024,-2.275 0.445,-1.038 0.935,-2.181 1.376,-2.906 l 5.258,2.629 c 0.398,0.198 0.879,0.111 1.181,-0.215 0.303,-0.326 0.352,-0.812 0.124,-1.194 C 30.122,26.928 26.796,20.19 25.529,16.843 29.652,18.933 34,20.02 34,17.19 V 3.691 C 34,-3.507 19.281,5.492 19.281,6.392 Z"
         id="path4-79" />
      <path
         fill="#ea596e"
         class="nopath"
         transform="matrix(0.3,0,0,0.3,9,3.9)"
         d="M 22,11.4 C 22,13.388 20.389,15 18.401,15 H 16.599 C 14.611,15 13,13.388 13,11.4 V 7.6 C 13,5.612 14.611,4 16.599,4 h 1.802 C 20.389,4 22,5.612 22,7.6 Z"
         id="path6-4" />
    </g>
  </g>
</svg>
